# xmcd
#
# Track frame offsets:
#       150
#       16935
#       30160
#       40545
#       56993
#       68828
#       83103
#       98710
#       112768
#       125155
#       137768
#       150748
#       166208
#       180120
#
# Disc length: 2637 seconds
#
# Revision: 1
# Processed by: cddbd v1.5.1PL0 Copyright (c) Steve Scherf et al.
# Submitted via: MusiCat 1.1
#
DISCID=a20a4b0e
DTITLE=Chitãozinho and Xororó - Aguenta Coração
DYEAR=1900
DGENRE=
TTITLE0=Ela chora chora
TTITLE1=Fotografia
TTITLE2=60 dias apaixonado
TTITLE3=Amor a três
TTITLE4=Aguenta coração
TTITLE5=Metade de Alguém
TTITLE6=Minha amiga
TTITLE7=Matriz ou filial
TTITLE8=Amante amada
TTITLE9=Pago dobrado
TTITLE10=Gamado nela
TTITLE11=Filho de Maria
TTITLE12=Choro apaixonado
TTITLE13=Amor Proibido
EXTD=\n\n
EXTT0=
EXTT1=
EXTT2=
EXTT3=
EXTT4=
EXTT5=
EXTT6=
EXTT7=
EXTT8=
EXTT9=
EXTT10=
EXTT11=
EXTT12=
EXTT13=
PLAYORDER=
